<svg xmlns="http://www.w3.org/2000/svg" xmlns:xlink="http://www.w3.org/1999/xlink" viewBox="0 0 1920 1080"><defs><style>.cls-1,.cls-16,.cls-20,.cls-22{fill:none;}.cls-2{clip-path:url(#clip-path);}.cls-3{fill:#026a9e;}.cls-4{fill:#085788;}.cls-5{fill:#274459;}.cls-6{fill:#fcebd6;}.cls-7{fill:#32526e;}.cls-8{fill:#801d15;}.cls-9{fill:#bf113f;}.cls-10{fill:#bdbebf;}.cls-11{fill:#fff;}.cls-12{fill:#f2f2f2;}.cls-13{fill:#31536c;}.cls-14{fill:#e6e6e6;}.cls-15{fill:#3997d7;}.cls-16{stroke:#3997d7;stroke-linecap:round;stroke-linejoin:round;stroke-width:2.82px;}.cls-17{fill:#39baf9;}.cls-18{fill:#d7e9ff;}.cls-19{fill:#703e03;}.cls-20{stroke:#39baf9;stroke-width:7.98px;}.cls-20,.cls-22{stroke-miterlimit:10;}.cls-21{fill:#ffcf4d;}.cls-22{stroke:#fff;stroke-width:2px;}.cls-23{fill:#e44d40;}.cls-24{fill:#ba5007;}.cls-25{fill:#f9a62f;}.cls-26{fill:#f9960d;}.cls-27{fill:#f6c01c;}</style><clipPath id="clip-path"><rect class="cls-1" width="1920" height="1080"/></clipPath></defs><g id="GPA"><g class="cls-2"><rect class="cls-3" width="1920" height="1080"/><polygon class="cls-4" points="945.17 291.61 1589.59 634.67 1747.54 871.2 1920 939.41 1920 1080 531.22 1080 59.53 807.3 475.63 551.86 463.9 351.07 945.17 291.61"/><polygon class="cls-5" points="54.31 797.45 54.31 804.28 306.78 950.06 684.14 731.39 684.14 726.84 54.31 797.45"/><polygon class="cls-6" points="54.31 786.06 54.31 799.73 306.78 945.5 684.14 726.84 684.14 708.62 54.31 786.06"/><polygon class="cls-5" points="54.31 782.24 54.31 786.06 306.78 931.84 684.14 713.17 684.14 708.62 54.31 782.24"/><polygon class="cls-7" points="54.31 782.24 433.65 563.21 684.14 708.62 306.78 928.02 54.31 782.24"/><polygon class="cls-6" points="433.02 617.5 559.25 690.39 511.91 717.73 385.68 644.84 433.02 617.5"/><polygon class="cls-5" points="54.31 782.24 54.31 804.28 59.53 807.3 59.53 785.39 54.31 782.24"/><polygon class="cls-8" points="96.28 786.11 96.28 792.94 348.76 938.72 726.12 720.05 726.12 715.5 96.28 786.11"/><polygon class="cls-6" points="96.28 774.72 96.28 788.38 348.76 934.16 726.12 715.5 726.12 697.27 96.28 774.72"/><polygon class="cls-8" points="96.28 770.9 96.28 774.72 348.76 920.5 726.12 701.83 726.12 697.27 96.28 770.9"/><polygon class="cls-9" points="96.28 770.9 475.63 551.86 726.12 697.27 348.76 916.67 96.28 770.9"/><polygon class="cls-6" points="474.99 606.16 601.23 679.05 553.89 706.38 427.65 633.5 474.99 606.16"/><polygon class="cls-8" points="96.28 770.9 96.28 792.94 101.51 795.96 101.51 774.05 96.28 770.9"/><path class="cls-7" d="M1669.14,141.17,1156.78-154.65c-6-3.43-12-4-17.36-2.13l0-.05-.93.35-.23.09-18.51,7.08,16.61,8.14c-.07.31-.17.59-.23.9l-90.54,411.71c-4.17,19,4.19,41.21,18.69,49.58l500,288.7-1.79,21.19,20.24-7.85c6.8-3.18,12.24-10.37,14.49-20.61l90.54-411.71C1692,171.73,1683.64,149.53,1669.14,141.17Z"/><path class="cls-7" d="M1669.14,141.17,1156.78-154.65c-6-3.43-12-4-17.36-2.13l0-.05-.93.35-.23.09-18.51,7.08,16.61,8.14c-.07.31-.17.59-.23.9l-62.08,282.19,250.69,195.32,360.56-175.66C1681.93,152.78,1676.29,145.29,1669.14,141.17Z"/><path class="cls-10" d="M1649.82,199.56l39-16.6c.71-15.11-5.54-30.71-15.8-39.06l-61.74,26Z"/><path class="cls-10" d="M1544.76,628.89,1032.4,333.08c-14.49-8.37-22.86-30.57-18.68-49.58l90.53-411.7c4.18-19,19.31-27.64,33.81-19.28l512.36,295.82c14.49,8.37,22.86,30.56,18.68,49.57l-90.53,411.71C1574.39,628.63,1559.26,637.26,1544.76,628.89Z"/><path class="cls-11" d="M1655.34,146.54,1143-149.27c-7-4.06-14.16-4-20.17-.88a21.07,21.07,0,0,1,15.26,2.68l512.36,295.81c14.49,8.37,22.86,30.56,18.68,49.57l-90.53,411.71c-2.15,9.8-7.24,16.77-13.63,20.15,8.65-1.89,15.87-9.74,18.55-21.95L1674,196.11C1678.2,177.1,1669.83,154.91,1655.34,146.54Z"/><path class="cls-11" d="M1533.66,600.64,1051.79,322.56c-13.26-7.65-20.92-28-17.1-45.36l83.45-379.45c3.82-17.4,17.67-25.29,30.93-17.63l481.87,278.07c13.27,7.65,20.92,28,17.1,45.36L1564.59,583C1560.77,600.4,1546.92,608.29,1533.66,600.64Z"/><path class="cls-12" d="M1538.68,598.93,1056.81,320.86c-13.26-7.66-20.92-28-17.09-45.37L1123.16-104c3.82-17.39,17.67-25.29,30.94-17.63L1636,156.48c13.26,7.66,20.91,28,17.09,45.36l-83.44,379.45C1565.79,598.69,1551.94,606.58,1538.68,598.93Z"/><path class="cls-13" d="M1537.86,598.93,1056,320.85c-13.26-7.65-20.92-28-17.1-45.36L1122.34-104c1.93-8.8,6.44-15.14,12.14-18.3-7.64,2-14,9.13-16.34,20L1034.69,277.2c-3.82,17.4,3.84,37.71,17.1,45.36l481.87,278.08c6.55,3.78,13.23,3.74,18.79.66A19.25,19.25,0,0,1,1537.86,598.93Z"/><path class="cls-13" d="M1551.84,641.78l-70-9.25-452.1-261c-14.49-8.37-39.81-7.32-56.55,2.34L652.8,558.74l-42.35-5.59v24h0c-.28,5.56,2.88,10.9,9.72,14.85l512.37,295.81c14.49,8.37,39.81,7.32,56.54-2.34L1538,684.14c9.42-5.44,14.11-12.44,13.84-19h0Z"/><path class="cls-7" d="M1212.14,476.84,1180,458.3H826.89L652.8,558.74l-42.35-5.59v24h0c-.28,5.56,2.88,10.9,9.72,14.85l512.37,295.81c7.65,4.42,18.34,6.19,29.18,5.47Z"/><path class="cls-10" d="M629.24,555.63l-18.79-2.48v24h0c-.28,5.56,2.88,10.9,9.72,14.85l9,5.21Z"/><path class="cls-10" d="M1137.73,890.24c13.74,5.21,33.39,4.07,48-3V833.66h-48Z"/><path class="cls-11" d="M1132.58,863.84,620.21,568c-14.49-8.37-12.68-23,4.06-32.65L973.15,334c16.74-9.66,42.06-10.71,56.55-2.35l512.37,295.82c14.49,8.37,12.67,23-4.07,32.65L1189.12,861.5C1172.39,871.16,1147.07,872.21,1132.58,863.84Z"/><path class="cls-11" d="M1538,651.36,1189.12,852.72c-16.73,9.66-42,10.71-56.54,2.34L620.21,559.25c-4.75-2.74-7.72-6.16-9-9.86-2.27,6.86.62,13.79,9.59,19l512.36,295.81c13.92,8,39.24,7,56-2.67L1538,660.14c11.25-6.5,15.73-15.23,13.08-22.8C1549.43,642.34,1545.06,647.29,1538,651.36Z"/><path class="cls-7" d="M810.26,481.28,787.08,467.9c-1.86-1.08-1.63-2.95.52-4.19L815,447.91a8.05,8.05,0,0,1,7.26-.3L845.41,461c1.86,1.08,1.63,2.95-.52,4.19L817.53,481A8.07,8.07,0,0,1,810.26,481.28Z"/><path class="cls-7" d="M846.06,502l-23.18-13.38c-1.86-1.08-1.63-2.95.52-4.19l27.37-15.8a8.05,8.05,0,0,1,7.26-.3l23.18,13.38c1.86,1.08,1.63,2.95-.52,4.19l-27.36,15.8A8.07,8.07,0,0,1,846.06,502Z"/><path class="cls-7" d="M881.87,522.62l-23.19-13.38c-1.86-1.08-1.62-2.95.52-4.19l27.37-15.8a8.05,8.05,0,0,1,7.26-.3L917,502.33c1.86,1.08,1.63,2.95-.52,4.19l-27.36,15.8A8.05,8.05,0,0,1,881.87,522.62Z"/><path class="cls-7" d="M931.38,505.55,908.2,492.17c-1.86-1.08-1.63-2.95.52-4.19l23-13.27a8.08,8.08,0,0,1,7.26-.3l23.18,13.39c1.86,1.07,1.63,2.95-.52,4.19l-23,13.26A8.05,8.05,0,0,1,931.38,505.55Z"/><path class="cls-7" d="M967.18,526.22,944,512.84c-1.86-1.08-1.63-3,.52-4.19l23-13.27a8.08,8.08,0,0,1,7.26-.3l23.18,13.39c1.87,1.07,1.63,2.95-.52,4.19l-23,13.26A8.05,8.05,0,0,1,967.18,526.22Z"/><path class="cls-7" d="M1003,546.89,979.8,533.51c-1.86-1.08-1.63-3,.52-4.2l23-13.26a8.08,8.08,0,0,1,7.26-.3l23.18,13.39c1.87,1.07,1.63,3-.52,4.19l-23,13.26A8.05,8.05,0,0,1,1003,546.89Z"/><path class="cls-7" d="M1038.78,567.56l-23.18-13.38c-1.86-1.08-1.63-3,.52-4.2l23-13.26a8.08,8.08,0,0,1,7.26-.3l23.18,13.39c1.87,1.07,1.63,3-.52,4.19l-23,13.26A8.05,8.05,0,0,1,1038.78,567.56Z"/><path class="cls-7" d="M1074.58,588.23l-23.18-13.38c-1.86-1.08-1.63-3,.52-4.2l23-13.26a8.08,8.08,0,0,1,7.26-.3l23.19,13.39c1.86,1.07,1.62,2.95-.53,4.19l-23,13.26A8.05,8.05,0,0,1,1074.58,588.23Z"/><path class="cls-7" d="M1110.38,608.9l-23.18-13.38c-1.86-1.08-1.63-3,.52-4.2l23-13.26a8.08,8.08,0,0,1,7.26-.3l23.19,13.39c1.86,1.07,1.62,3-.53,4.19l-23,13.26A8.05,8.05,0,0,1,1110.38,608.9Z"/><path class="cls-7" d="M1146.18,629.57,1123,616.19c-1.86-1.08-1.63-3,.52-4.2l23-13.26a8.08,8.08,0,0,1,7.26-.3l23.19,13.38c1.86,1.08,1.62,3-.52,4.2l-23,13.26A8.07,8.07,0,0,1,1146.18,629.57Z"/><path class="cls-7" d="M1182,650.24l-23.18-13.38c-1.86-1.08-1.63-3,.52-4.2l23-13.26a8.07,8.07,0,0,1,7.27-.3l23.18,13.38c1.86,1.08,1.63,3-.52,4.2l-23,13.26A8.1,8.1,0,0,1,1182,650.24Z"/><path class="cls-7" d="M1217.79,670.91l-23.19-13.39c-1.86-1.07-1.63-2.95.52-4.19l23-13.26a8.07,8.07,0,0,1,7.27-.3l23.18,13.38c1.86,1.08,1.63,3-.52,4.2l-23,13.26A8.08,8.08,0,0,1,1217.79,670.91Z"/><path class="cls-7" d="M1253.59,691.58l-23.19-13.39c-1.86-1.07-1.62-3,.52-4.19l23-13.26a8.07,8.07,0,0,1,7.27-.3l23.18,13.38c1.86,1.08,1.63,3-.52,4.2l-23,13.26A8.08,8.08,0,0,1,1253.59,691.58Z"/><path class="cls-7" d="M984.13,495.77,961,482.38c-1.86-1.07-1.63-2.95.52-4.19l23-13.26a8.05,8.05,0,0,1,7.26-.3L1014.88,478c1.86,1.08,1.63,2.95-.52,4.19l-23,13.27A8.08,8.08,0,0,1,984.13,495.77Z"/><path class="cls-7" d="M947.79,474.79,924.61,461.4c-1.86-1.07-1.63-2.95.52-4.19l23-13.26a8.07,8.07,0,0,1,7.27-.3L978.55,457c1.86,1.08,1.63,3-.52,4.2l-23,13.26A8.1,8.1,0,0,1,947.79,474.79Z"/><path class="cls-7" d="M911.4,453.78,861.47,425c-1.86-1.07-1.63-2.95.52-4.19l23-13.26a8.09,8.09,0,0,1,7.26-.31L942.15,436c1.86,1.08,1.63,3-.52,4.19l-23,13.27A8.08,8.08,0,0,1,911.4,453.78Z"/><path class="cls-7" d="M936.84,428.22l-40.52-23.39c-1.86-1.07-1.63-2.95.52-4.19l23-13.26a8.06,8.06,0,0,1,7.26-.31l40.52,23.4c1.86,1.07,1.63,2.95-.52,4.19l-23,13.26A8.05,8.05,0,0,1,936.84,428.22Z"/><path class="cls-7" d="M1019.93,516.44l-23.18-13.39c-1.86-1.07-1.63-2.95.52-4.19l23-13.26a8.05,8.05,0,0,1,7.26-.3l23.18,13.38c1.87,1.08,1.63,2.95-.52,4.19l-23,13.27A8.08,8.08,0,0,1,1019.93,516.44Z"/><path class="cls-7" d="M1055.73,537.11l-23.18-13.39c-1.86-1.07-1.63-3,.52-4.19l23-13.26a8.05,8.05,0,0,1,7.26-.3l23.18,13.38c1.87,1.08,1.63,2.95-.52,4.19l-23,13.27A8.08,8.08,0,0,1,1055.73,537.11Z"/><path class="cls-7" d="M1091.53,557.78l-23.18-13.39c-1.86-1.07-1.63-2.95.52-4.19l23-13.26a8.05,8.05,0,0,1,7.26-.3L1122.28,540c1.87,1.07,1.63,3-.52,4.19l-23,13.26A8.06,8.06,0,0,1,1091.53,557.78Z"/><path class="cls-7" d="M1127.33,578.44l-23.18-13.38c-1.86-1.07-1.63-2.95.52-4.19l23-13.26a8.05,8.05,0,0,1,7.26-.3l23.19,13.38c1.86,1.07,1.62,2.95-.53,4.19l-23,13.26A8,8,0,0,1,1127.33,578.44Z"/><path class="cls-7" d="M1163.13,599.11,1140,585.73c-1.86-1.07-1.63-3,.52-4.19l23-13.26a8,8,0,0,1,7.26-.3l23.19,13.38c1.86,1.07,1.62,2.95-.52,4.19l-23,13.26A8.05,8.05,0,0,1,1163.13,599.11Z"/><path class="cls-7" d="M1198.93,619.78l-23.18-13.38c-1.86-1.07-1.63-2.95.52-4.19l23-13.26a8.06,8.06,0,0,1,7.26-.31L1229.69,602c1.86,1.07,1.62,3-.52,4.19l-23,13.26A8.07,8.07,0,0,1,1198.93,619.78Z"/><path class="cls-7" d="M1234.73,640.45l-23.18-13.38c-1.86-1.08-1.63-3,.52-4.19l23-13.27a8.1,8.1,0,0,1,7.27-.3l23.18,13.39c1.86,1.07,1.63,2.95-.52,4.19l-23,13.26A8.07,8.07,0,0,1,1234.73,640.45Z"/><path class="cls-7" d="M1270.54,661.12l-23.19-13.38c-1.86-1.08-1.63-3,.52-4.19l23-13.26a8.08,8.08,0,0,1,7.27-.31l23.18,13.39c1.86,1.07,1.63,3-.52,4.19l-23,13.26A8.05,8.05,0,0,1,1270.54,661.12Z"/><path class="cls-7" d="M1306.34,681.79l-23.19-13.38c-1.86-1.08-1.62-2.95.52-4.19l23-13.27a8.11,8.11,0,0,1,7.27-.3L1337.09,664c1.86,1.07,1.63,3-.52,4.19l-23,13.26A8.05,8.05,0,0,1,1306.34,681.79Z"/><path class="cls-7" d="M1370,718.54l-50.58-29.2c-1.86-1.08-1.63-3,.52-4.2l23-13.26a8.05,8.05,0,0,1,7.26-.3l50.59,29.2c1.86,1.08,1.62,3-.53,4.2l-23,13.26A8.08,8.08,0,0,1,1370,718.54Z"/><path class="cls-7" d="M1439.68,678.3,1397,653.65c-1.86-1.08-1.63-2.95.52-4.19l23-13.27a8.08,8.08,0,0,1,7.26-.3l42.69,24.65c1.87,1.08,1.63,3-.52,4.19l-23,13.27A8.08,8.08,0,0,1,1439.68,678.3Z"/><path class="cls-7" d="M1082.62,512.39,1059.44,499c-1.86-1.08-1.62-2.95.52-4.19l23-13.27a8.1,8.1,0,0,1,7.27-.3l23.18,13.39c1.86,1.07,1.63,2.95-.52,4.19l-23,13.26A8.07,8.07,0,0,1,1082.62,512.39Z"/><path class="cls-7" d="M1045.93,491.21l-23.18-13.39c-1.86-1.07-1.63-2.95.52-4.19l23-13.26a8.05,8.05,0,0,1,7.26-.3l23.19,13.38c1.86,1.08,1.63,3-.52,4.2l-23,13.26A8.1,8.1,0,0,1,1045.93,491.21Z"/><path class="cls-7" d="M1009.24,470l-23.18-13.39c-1.86-1.07-1.63-2.95.52-4.19l23-13.26a8.05,8.05,0,0,1,7.26-.3L1040,452.27c1.86,1.07,1.62,3-.53,4.19l-23,13.26A8.09,8.09,0,0,1,1009.24,470Z"/><path class="cls-7" d="M972.55,448.84l-23.18-13.38c-1.86-1.08-1.63-3,.52-4.2l23-13.26a8.08,8.08,0,0,1,7.26-.3l23.18,13.39c1.87,1.07,1.63,3-.52,4.19l-23,13.26A8.05,8.05,0,0,1,972.55,448.84Z"/><path class="cls-7" d="M1118.43,533.06l-23.19-13.38c-1.86-1.08-1.62-2.95.53-4.2l23-13.26a8.08,8.08,0,0,1,7.26-.3l23.18,13.39c1.86,1.07,1.63,3-.52,4.19l-23,13.26A8.05,8.05,0,0,1,1118.43,533.06Z"/><path class="cls-7" d="M1154.23,553.73,1131,540.35c-1.86-1.08-1.62-3,.53-4.2l23-13.26a8.08,8.08,0,0,1,7.26-.3L1185,536c1.86,1.07,1.63,2.95-.52,4.19l-23,13.26A8.05,8.05,0,0,1,1154.23,553.73Z"/><path class="cls-7" d="M1190,574.4,1166.84,561c-1.86-1.08-1.62-3,.53-4.2l23-13.26a8.08,8.08,0,0,1,7.26-.3l23.18,13.39c1.86,1.07,1.63,3-.52,4.19l-23,13.26A8.05,8.05,0,0,1,1190,574.4Z"/><path class="cls-7" d="M1225.83,595.07l-23.18-13.38c-1.87-1.08-1.63-3,.52-4.2l23-13.26a8.08,8.08,0,0,1,7.26-.3l23.18,13.39c1.86,1.07,1.63,2.95-.52,4.19l-23,13.26A8.05,8.05,0,0,1,1225.83,595.07Z"/><path class="cls-7" d="M1261.63,615.74l-23.18-13.38c-1.87-1.08-1.63-3,.52-4.2l23-13.26a8.08,8.08,0,0,1,7.26-.3L1292.38,598c1.86,1.07,1.63,3-.52,4.19l-23,13.26A8.08,8.08,0,0,1,1261.63,615.74Z"/><path class="cls-7" d="M1297.43,636.41,1274.25,623c-1.86-1.08-1.63-3,.52-4.2l23-13.26a8.08,8.08,0,0,1,7.26-.3l23.18,13.38c1.86,1.08,1.63,3-.52,4.2l-23,13.26A8.08,8.08,0,0,1,1297.43,636.41Z"/><path class="cls-7" d="M1333.23,657.08l-23.18-13.38c-1.86-1.08-1.63-3,.52-4.2l23-13.26a8.05,8.05,0,0,1,7.26-.3L1364,639.32c1.86,1.08,1.63,3-.52,4.2l-23,13.26A8.08,8.08,0,0,1,1333.23,657.08Z"/><path class="cls-7" d="M1369,677.75l-23.18-13.39c-1.86-1.07-1.63-3,.52-4.19l23-13.26a8.05,8.05,0,0,1,7.26-.3L1399.78,660c1.86,1.08,1.63,3-.52,4.2l-23,13.26A8.08,8.08,0,0,1,1369,677.75Z"/><path class="cls-7" d="M1404.83,698.42,1381.65,685c-1.86-1.07-1.63-2.95.52-4.19l23-13.26a8.05,8.05,0,0,1,7.26-.3l23.18,13.38c1.87,1.08,1.63,3-.52,4.2l-23,13.26A8.08,8.08,0,0,1,1404.83,698.42Z"/><path class="cls-7" d="M1063.77,461.27l-23.18-13.39c-1.86-1.07-1.63-2.95.52-4.19l23-13.26a8.07,8.07,0,0,1,7.27-.3l23.18,13.38c1.86,1.08,1.62,2.95-.52,4.19L1071,461A8.1,8.1,0,0,1,1063.77,461.27Z"/><path class="cls-7" d="M1028.15,440.7,1005,427.32c-1.86-1.08-1.63-3,.52-4.2l23-13.26a8.08,8.08,0,0,1,7.26-.3L1058.9,423c1.87,1.07,1.63,2.95-.52,4.19l-23,13.26A8.05,8.05,0,0,1,1028.15,440.7Z"/><path class="cls-7" d="M992.53,420.13l-23.18-13.38c-1.86-1.07-1.63-2.95.52-4.19l23-13.26a8.06,8.06,0,0,1,7.26-.31l23.18,13.39c1.86,1.07,1.63,2.95-.52,4.19l-23,13.26A8.05,8.05,0,0,1,992.53,420.13Z"/><path class="cls-7" d="M956.91,399.57l-23.19-13.39c-1.86-1.07-1.62-2.95.52-4.19l23-13.26a8.07,8.07,0,0,1,7.27-.3l23.18,13.38c1.86,1.08,1.63,2.95-.52,4.2l-23,13.26A8.08,8.08,0,0,1,956.91,399.57Z"/><path class="cls-7" d="M993.54,378.42,970.35,365c-1.86-1.07-1.62-2.95.53-4.19l7.59-4.38a8.05,8.05,0,0,1,7.26-.3l23.18,13.38c1.86,1.08,1.63,2.95-.52,4.19l-7.59,4.39A8.08,8.08,0,0,1,993.54,378.42Z"/><path class="cls-7" d="M1040,405.26l-23.18-13.39c-1.86-1.07-1.63-2.95.52-4.19l7.6-4.38a8.05,8.05,0,0,1,7.26-.3l23.18,13.38c1.86,1.08,1.63,2.95-.52,4.19l-7.59,4.39A8.1,8.1,0,0,1,1040,405.26Z"/><path class="cls-7" d="M1075.5,425.74l-23.18-13.39c-1.86-1.07-1.63-3,.52-4.19l7.59-4.38a8.05,8.05,0,0,1,7.26-.3l23.18,13.38c1.87,1.08,1.63,2.95-.52,4.19l-7.59,4.39A8.08,8.08,0,0,1,1075.5,425.74Z"/><path class="cls-7" d="M1111,446.22l-23.18-13.38c-1.86-1.08-1.63-3,.52-4.2l7.59-4.38a8.07,8.07,0,0,1,7.27-.3l23.18,13.38c1.86,1.08,1.63,3-.52,4.2l-7.6,4.38A8.05,8.05,0,0,1,1111,446.22Z"/><path class="cls-7" d="M1146.45,466.7l-23.19-13.38c-1.86-1.08-1.62-2.95.53-4.2l7.59-4.38a8.05,8.05,0,0,1,7.26-.3l23.18,13.38c1.86,1.08,1.63,3-.52,4.2l-7.59,4.38A8.05,8.05,0,0,1,1146.45,466.7Z"/><path class="cls-7" d="M1344.49,581l-23.18-13.38c-1.86-1.08-1.63-2.95.52-4.19l7.6-4.39a8.08,8.08,0,0,1,7.26-.3l23.18,13.39c1.86,1.07,1.63,3-.52,4.19l-7.59,4.38A8.07,8.07,0,0,1,1344.49,581Z"/><path class="cls-7" d="M1380,601.52l-23.18-13.38c-1.87-1.07-1.63-2.95.52-4.19l7.59-4.39a8.08,8.08,0,0,1,7.26-.3l23.18,13.39c1.87,1.07,1.63,3-.52,4.19l-7.59,4.38A8.05,8.05,0,0,1,1380,601.52Z"/><path class="cls-7" d="M1415.44,622l-23.18-13.39c-1.86-1.07-1.63-3,.52-4.19l7.59-4.39a8.1,8.1,0,0,1,7.27-.3l23.18,13.39c1.86,1.07,1.63,3-.52,4.19l-7.6,4.38A8.06,8.06,0,0,1,1415.44,622Z"/><path class="cls-7" d="M1450.92,642.49l-23.19-13.39c-1.86-1.07-1.62-3,.52-4.19l7.6-4.38a8.06,8.06,0,0,1,7.26-.31l23.18,13.39c1.86,1.07,1.63,2.95-.52,4.19l-7.59,4.39A8.08,8.08,0,0,1,1450.92,642.49Z"/><path class="cls-7" d="M1099.57,481.94l-23.18-13.39c-1.86-1.07-1.63-2.95.52-4.19l23-13.26a8.07,8.07,0,0,1,7.27-.3l23.18,13.38c1.86,1.08,1.63,2.95-.52,4.19l-23,13.27A8.1,8.1,0,0,1,1099.57,481.94Z"/><path class="cls-7" d="M1135.38,502.61l-23.19-13.39c-1.86-1.07-1.63-3,.52-4.19l23-13.26a8.07,8.07,0,0,1,7.27-.3l23.18,13.38c1.86,1.08,1.63,2.95-.52,4.19l-23,13.27A8.08,8.08,0,0,1,1135.38,502.61Z"/><path class="cls-7" d="M1171.18,523.28,1148,509.89c-1.86-1.07-1.62-2.95.53-4.19l23-13.26a8.05,8.05,0,0,1,7.26-.3l23.18,13.38c1.86,1.08,1.63,3-.52,4.19l-23,13.27A8.08,8.08,0,0,1,1171.18,523.28Z"/><path class="cls-7" d="M1207,544l-23.19-13.39c-1.86-1.07-1.62-2.95.53-4.19l23-13.26a8.05,8.05,0,0,1,7.26-.3l23.18,13.38c1.86,1.08,1.63,2.95-.52,4.19l-23,13.26A8.06,8.06,0,0,1,1207,544Z"/><path class="cls-7" d="M1242.78,564.62l-23.18-13.39c-1.87-1.07-1.63-3,.52-4.19l23-13.26a8.05,8.05,0,0,1,7.26-.3l23.18,13.38c1.86,1.07,1.63,2.95-.52,4.19l-23,13.26A8.09,8.09,0,0,1,1242.78,564.62Z"/><path class="cls-7" d="M1278.58,585.28,1255.4,571.9c-1.87-1.07-1.63-2.95.52-4.19l23-13.26a8.09,8.09,0,0,1,7.26-.31l23.18,13.39c1.86,1.07,1.63,3-.52,4.19l-23,13.26A8.05,8.05,0,0,1,1278.58,585.28Z"/><path class="cls-7" d="M1314.38,606l-23.18-13.38c-1.86-1.08-1.63-3,.52-4.19l23-13.26a8.06,8.06,0,0,1,7.26-.31l23.18,13.39c1.86,1.07,1.63,2.95-.52,4.19l-23,13.26A8.05,8.05,0,0,1,1314.38,606Z"/><path class="cls-7" d="M1350.18,626.62,1327,613.24c-1.86-1.07-1.63-3,.52-4.19l23-13.26a8.06,8.06,0,0,1,7.26-.31l23.18,13.39c1.86,1.07,1.63,3-.52,4.19l-23,13.26A8.05,8.05,0,0,1,1350.18,626.62Z"/><path class="cls-7" d="M1386,647.29l-23.18-13.38c-1.86-1.08-1.63-2.95.52-4.19l23-13.27a8.08,8.08,0,0,1,7.26-.3l23.18,13.39c1.86,1.07,1.63,3-.52,4.19l-23,13.26A8.05,8.05,0,0,1,1386,647.29Z"/><path class="cls-7" d="M894.9,484.49l-68.28-39.42c-1.86-1.07-1.63-2.95.52-4.19l23-13.26a8.05,8.05,0,0,1,7.26-.3l68.28,39.41c1.86,1.08,1.63,3-.52,4.2l-23,13.26A8.08,8.08,0,0,1,894.9,484.49Z"/><path class="cls-7" d="M1334.72,738.42,1266.44,699c-1.86-1.07-1.63-3,.52-4.19l23-13.26a8.05,8.05,0,0,1,7.26-.3l68.28,39.41c1.86,1.08,1.63,3-.52,4.2l-23,13.26A8.08,8.08,0,0,1,1334.72,738.42Z"/><path class="cls-7" d="M1191.54,701.42,1168.36,688c-1.86-1.07-1.63-2.95.52-4.19l27.37-15.8a8.05,8.05,0,0,1,7.26-.3l23.18,13.38c1.86,1.08,1.63,3-.52,4.2l-27.36,15.79A8.08,8.08,0,0,1,1191.54,701.42Z"/><path class="cls-7" d="M931.56,551.31l-37.08-21.4c-1.86-1.08-1.62-2.95.53-4.19l27.36-15.8a8.05,8.05,0,0,1,7.26-.3L966.71,531c1.86,1.08,1.62,3-.53,4.19L938.82,551A8.05,8.05,0,0,1,931.56,551.31Z"/><path class="cls-7" d="M1157.05,681.5,1120,660.09c-1.86-1.07-1.62-3,.53-4.19l27.36-15.8a8.08,8.08,0,0,1,7.26-.3l37.08,21.41c1.86,1.07,1.62,2.95-.52,4.19l-27.37,15.8A8.05,8.05,0,0,1,1157.05,681.5Z"/><path class="cls-7" d="M983.21,581.14l-37.07-21.41c-1.86-1.08-1.63-3,.52-4.19L974,539.74a8.05,8.05,0,0,1,7.26-.3l37.08,21.4c1.86,1.08,1.63,2.95-.52,4.2l-27.37,15.79A8.09,8.09,0,0,1,983.21,581.14Z"/><path class="cls-7" d="M981.53,539.58l161.2,93.07c2,1.15,2,3,0,4.18l-27.91,16.11a8,8,0,0,1-7.24,0L946.39,559.87Z"/><path class="cls-7" d="M1291.6,738.89l25.82,14.91c1.53.88,1.34,2.42-.42,3.44l-11.2,6.46a6.6,6.6,0,0,1-6,.25L1274,749c-1.53-.88-1.34-2.42.43-3.44l11.19-6.46A6.61,6.61,0,0,1,1291.6,738.89Z"/><path class="cls-7" d="M1255.5,718.05,1281.33,733c1.52.88,1.33,2.42-.43,3.44l-11.19,6.46a6.63,6.63,0,0,1-6,.25l-25.82-14.91c-1.53-.88-1.33-2.42.43-3.44l11.19-6.46A6.61,6.61,0,0,1,1255.5,718.05Z"/><path class="cls-7" d="M1219.7,697.38l25.83,14.91c1.52.88,1.33,2.42-.43,3.44l-11.19,6.46a6.63,6.63,0,0,1-6,.25l-25.82-14.91c-1.53-.88-1.33-2.42.43-3.44l11.19-6.46A6.61,6.61,0,0,1,1219.7,697.38Z"/><path class="cls-7" d="M1275.27,706.64l25.83,14.91c1.52.88,1.33,2.42-.43,3.43l-11.19,6.46a6.63,6.63,0,0,1-6,.25l-25.82-14.91c-1.53-.88-1.33-2.42.43-3.43l11.19-6.47A6.63,6.63,0,0,1,1275.27,706.64Z"/><path class="cls-14" d="M813,639.76l94-54.23a21.32,21.32,0,0,1,21.39.05l161.49,94.09a8.77,8.77,0,0,1-.08,15.2l-94.15,53.59a22.07,22.07,0,0,1-22.1-.15L813,653.88A8.17,8.17,0,0,1,813,639.76Z"/><path class="cls-13" d="M1423.27,558.06,1086.53,363.79l-5.72,3.74a7.37,7.37,0,0,0,.35,12.54l317.3,183.22a16.54,16.54,0,0,0,17.11-.36Z"/><path class="cls-7" d="M1246.1,31.7l-3.35,15.15a7,7,0,0,0,3.34,7.57l233.35,134.66a4.29,4.29,0,0,0,6.34-2.79l3.39-15.35a6.59,6.59,0,0,0-3.12-7.13L1253.33,28.53A4.89,4.89,0,0,0,1246.1,31.7Z"/><path class="cls-15" d="M1248.62,74l81.5,46.63a8.94,8.94,0,0,1,4.28,9.71h0a8.93,8.93,0,0,1-13.13,5.81L1239.71,89.8a9,9,0,0,1-4.31-9.69l.06-.26A8.94,8.94,0,0,1,1248.62,74Z"/><path class="cls-15" d="M1370.51,157.31h0a8.89,8.89,0,0,0,4.25,9.63l38.5,22.22a8.9,8.9,0,0,0,13.15-5.79h0a8.89,8.89,0,0,0-4.25-9.63l-38.5-22.22A8.91,8.91,0,0,0,1370.51,157.31Z"/><path class="cls-15" d="M1439.14,196.92h0a8.91,8.91,0,0,0,4.25,9.63l23.1,13.33a8.9,8.9,0,0,0,13.15-5.79h0a8.9,8.9,0,0,0-4.24-9.63l-23.11-13.34A8.91,8.91,0,0,0,1439.14,196.92Z"/><path class="cls-16" d="M1446.65,220.5l21.95,12.67a9.56,9.56,0,0,1,4.55,10.32l-1.43,6.44a9.54,9.54,0,0,1-14.08,6.21l-22-12.67a9.53,9.53,0,0,1-4.55-10.32l1.42-6.44A9.55,9.55,0,0,1,1446.65,220.5Z"/><path class="cls-16" d="M1439.36,253.5l22,12.66a9.55,9.55,0,0,1,4.55,10.33l-1.24,5.6a9.54,9.54,0,0,1-14.08,6.2l-22-12.67A9.53,9.53,0,0,1,1424,265.3l1.23-5.6A9.54,9.54,0,0,1,1439.36,253.5Z"/><path class="cls-16" d="M1432.56,284.25l22,12.67a9.54,9.54,0,0,1,4.54,10.32l-1.23,5.6a9.55,9.55,0,0,1-14.09,6.21l-22-12.67a9.55,9.55,0,0,1-4.55-10.32l1.24-5.6A9.54,9.54,0,0,1,1432.56,284.25Z"/><path class="cls-16" d="M1425.88,315.08l22,12.69a9.55,9.55,0,0,1,4.53,10.41l-1.29,5.57a9.54,9.54,0,0,1-14.06,6.12l-22-12.7a9.53,9.53,0,0,1-4.53-10.41l1.29-5.57A9.53,9.53,0,0,1,1425.88,315.08Z"/><path class="cls-16" d="M1419,345.77l22,12.67a9.53,9.53,0,0,1,4.54,10.32l-1.23,5.6a9.54,9.54,0,0,1-14.09,6.2l-22-12.67a9.55,9.55,0,0,1-4.55-10.32l1.24-5.6A9.54,9.54,0,0,1,1419,345.77Z"/><path class="cls-16" d="M1350.34,306.16l37.34,21.55a9.54,9.54,0,0,1,4.54,10.35l-1.25,5.59a9.54,9.54,0,0,1-14.08,6.17l-37.32-21.53A9.53,9.53,0,0,1,1335,318l1.24-5.6A9.54,9.54,0,0,1,1350.34,306.16Z"/><path class="cls-16" d="M1357.14,275.41,1394.47,297A9.54,9.54,0,0,1,1399,307.3l-1.25,5.59a9.54,9.54,0,0,1-14.08,6.18l-37.32-21.54a9.53,9.53,0,0,1-4.54-10.32l1.23-5.6A9.54,9.54,0,0,1,1357.14,275.41Z"/><path class="cls-16" d="M1353.16,266.78l37.35,21.55a9.54,9.54,0,0,0,14.08-6.21l1.24-5.6a9.53,9.53,0,0,0-4.55-10.32l-37.35-21.55a9.54,9.54,0,0,0-14.08,6.2l-1.24,5.6A9.54,9.54,0,0,0,1353.16,266.78Z"/><path class="cls-16" d="M1356.64,220.1l-1.23,5.6A9.54,9.54,0,0,0,1360,236l37.53,21.65a9.54,9.54,0,0,0,14.12-6.34l1.15-5.65a9.55,9.55,0,0,0-4.57-10.18l-37.45-21.61A9.55,9.55,0,0,0,1356.64,220.1Z"/><path class="cls-16" d="M1378,180.9l37.35,21.55a9.54,9.54,0,0,1,4.54,10.32l-1.42,6.45a9.54,9.54,0,0,1-14.08,6.2l-37.35-21.55a9.53,9.53,0,0,1-4.55-10.32l1.42-6.45A9.54,9.54,0,0,1,1378,180.9Z"/><path class="cls-16" d="M1243.07,103.05,1348,163.8a9.56,9.56,0,0,1,4.57,10.18l-1.29,6.26a9.54,9.54,0,0,1-14.11,6.35l-105-60.6a9.53,9.53,0,0,1-4.55-10.32l1.42-6.43A9.54,9.54,0,0,1,1243.07,103.05Z"/><path class="cls-16" d="M1235.76,136.05,1341,196.72a9.53,9.53,0,0,1,4.55,10.32l-1.23,5.6a9.54,9.54,0,0,1-14.09,6.2L1225,158.14a9.54,9.54,0,0,1-4.54-10.32l1.22-5.56A9.55,9.55,0,0,1,1235.76,136.05Z"/><path class="cls-16" d="M1229,166.8l105.13,60.68a9.53,9.53,0,0,1,4.55,10.32l-1.24,5.6a9.54,9.54,0,0,1-14.08,6.2l-105.17-60.69a9.52,9.52,0,0,1-4.53-10.37L1215,173A9.55,9.55,0,0,1,1229,166.8Z"/><path class="cls-16" d="M1222.18,197.53l105.2,60.7a9.54,9.54,0,0,1,4.54,10.32l-1.23,5.6a9.55,9.55,0,0,1-14.09,6.21l-105.19-60.71a9.53,9.53,0,0,1-4.55-10.32l1.23-5.6A9.54,9.54,0,0,1,1222.18,197.53Z"/><path class="cls-16" d="M1215.38,228.28,1320.58,289a9.53,9.53,0,0,1,4.55,10.32l-1,4.31a9.54,9.54,0,0,1-14,6.25l-105.47-59.49a9.51,9.51,0,0,1-4.63-10.36l1.22-5.53A9.54,9.54,0,0,1,1215.38,228.28Z"/><path class="cls-15" d="M1243.32,300.85h0a6.67,6.67,0,0,0,3.26,6.78l141.21,81.49a6.67,6.67,0,0,0,9.85-4.34l.13-.56a6.68,6.68,0,0,0-3.2-7.23l-141.34-80.93A6.67,6.67,0,0,0,1243.32,300.85Z"/><path class="cls-7" d="M1205,315.44l-3.23,16.39a9,9,0,0,0,4.32,9.52l116.38,67.16a9,9,0,0,0,13.3-6l3.27-16.37a9,9,0,0,0-4.32-9.54l-116.41-67.18A9,9,0,0,0,1205,315.44Z"/><path class="cls-15" d="M1347.38,401.07l-2.19,12a11.15,11.15,0,0,0,5.4,11.65L1390.86,448a11.15,11.15,0,0,0,16.52-7.57l2.27-12a11.14,11.14,0,0,0-5.38-11.74l-40.35-23.29A11.15,11.15,0,0,0,1347.38,401.07Z"/><rect class="cls-17" x="1518.71" y="635.46" width="228.84" height="231.93"/><path class="cls-18" d="M1743.49,635.45c0,6.25-2.24,12.24-6.35,17.8-15.23,20.63-56.15,35.39-104.26,35.39s-89-14.76-104.26-35.39c-4.11-5.56-6.35-11.55-6.35-17.8,0-29.37,49.52-53.18,110.61-53.18S1743.49,606.08,1743.49,635.45Z"/><path class="cls-17" d="M1743.49,867.38c0,6.24-2.24,12.23-6.35,17.8-15.23,20.62-56.15,35.39-104.26,35.39s-89-14.77-104.26-35.39c-4.11-5.57-6.35-11.56-6.35-17.8,0-29.37,49.52-53.18,110.61-53.18S1743.49,838,1743.49,867.38Z"/><ellipse class="cls-19" cx="1632.88" cy="653.25" rx="104.26" ry="35.39"/><path class="cls-20" d="M1743.49,635.45c0,6.25-2.24,12.24-6.35,17.8-15.23,20.63-56.15,35.39-104.26,35.39s-89-14.76-104.26-35.39c-4.11-5.56-6.35-11.55-6.35-17.8,0-29.37,49.52-53.18,110.61-53.18S1743.49,606.08,1743.49,635.45Z"/><path class="cls-20" d="M1743.49,867.38c0,6.24-2.24,12.23-6.35,17.8-15.23,20.62-56.15,35.39-104.26,35.39s-89-14.77-104.26-35.39c-4.11-5.57-6.35-11.56-6.35-17.8,0-29.37,49.52-53.18,110.61-53.18S1743.49,838,1743.49,867.38Z"/><path class="cls-21" d="M1534.45,91.28l118,67.83s-7.34,103.39-57.51,118.27l-109.26-66.84S1527.55,180.13,1534.45,91.28Z"/><polygon class="cls-10" points="189.71 347.67 189.71 383.54 487.57 556.13 945.17 291.61 945.17 255.96 189.71 347.67"/><polygon class="cls-11" points="487.57 517.95 945.17 255.96 645.36 84.58 189.71 347.67 487.57 517.95"/><polyline class="cls-22" points="189.71 352.6 487.07 525.42 945.17 261.23"/><polyline class="cls-22" points="189.71 361.35 487.07 534.17 945.17 269.98"/><polyline class="cls-22" points="189.71 370.1 487.07 542.92 945.17 278.73"/><polyline class="cls-22" points="945.17 287.48 487.07 551.66 189.71 378.84"/><polygon class="cls-10" points="582.25 155.21 676.92 209.87 669.03 214.41 574.36 159.76 582.25 155.21"/><polygon class="cls-10" points="550.69 173.43 740.04 282.76 732.15 287.29 542.8 177.98 550.69 173.43"/><polyline class="cls-10" points="534.91 182.54 724.26 291.87 716.37 296.4 527.02 187.09"/><polyline class="cls-10" points="519.13 191.65 708.48 300.98 700.59 305.52 511.24 196.21"/><polyline class="cls-10" points="503.35 200.76 692.7 310.1 684.81 314.63 495.46 205.32"/><polyline class="cls-10" points="487.57 209.87 676.92 319.21 669.03 323.74 479.68 214.43"/><polyline class="cls-10" points="456.01 228.09 645.36 337.43 637.47 341.96 448.12 232.65"/><polyline class="cls-10" points="377.11 273.65 566.47 382.98 558.58 387.52 369.22 278.21"/><polyline class="cls-10" points="440.23 237.21 629.59 346.54 621.7 351.07 432.34 241.76"/><polyline class="cls-10" points="424.45 246.32 534.91 310.1 527.02 314.63 416.56 250.87"/><polyline class="cls-10" points="361.33 282.76 471.79 346.54 463.9 351.07 353.44 287.32"/><polyline class="cls-10" points="345.55 291.87 456.01 355.65 448.12 360.18 337.66 296.43"/><polygon class="cls-10" points="598.03 146.09 692.7 200.76 684.81 205.29 590.14 150.65 598.03 146.09"/><polygon class="cls-10" points="645.36 118.76 740.04 173.43 732.15 177.96 637.47 123.32 645.36 118.76"/><path class="cls-23" d="M798.92,205.1a185.13,185.13,0,0,0-70.26,17.46,171.74,171.74,0,0,0-31.31,19.2c-8.87,6.8-19.51,14.63-23.54,25.51C664.27,293,705.4,296,721.32,296.62a147.85,147.85,0,0,0,70.56-15c11.34-5.58,23.49-12.58,31-23,6.9-9.59,8.09-22.88.37-32.36-1.57-1.93-4.87.61-3.46,2.67,13.69,20-17.12,37.89-31.45,45A138.23,138.23,0,0,1,728.71,288a133.44,133.44,0,0,1-30.61-3.15c-4.31-1-9.23-1.86-13-4.38-5.21-3.53-4.23-9.19-1.34-13.95,5-8.26,14-14.87,21.66-20.56a191,191,0,0,1,26.37-16.38,176.62,176.62,0,0,1,67.08-19.17c3.39-.27,3.47-5.51,0-5.35Z"/><path class="cls-23" d="M727.92,260c18.88-11.15,36.43-25.2,53.75-38.62l-5.4-1.42c.71,5-2.11,9.36-4.58,13.42s-4.9,7.91-7.34,11.87Q757,257.08,749.72,269c-2.72,4.42,4.35,8.55,7,4.06q8.52-14.62,17-29.29c4.6-7.95,10.43-15.93,8.8-25.55-.45-2.65-3.72-2.77-5.4-1.43-17,13.63-35,26-51.85,39.73-2,1.6.56,4.71,2.67,3.46Z"/><path class="cls-23" d="M748,248.18c5.22.65,11,2.12,16.17,1.26,4.34-.71,3.55-6.85,0-8-4.9-1.6-11-.89-16.17-1s-4.82,7.18,0,7.78Z"/><path class="cls-23" d="M786.59,232.16c.06,4,.83,7.85.58,11.86a49,49,0,0,1-2.56,12.56c-1.24,3.68,4.52,5.22,5.78,1.6,2.92-8.34,4.25-18.9.48-27.18-1-2.13-4.31-1-4.28,1.16Z"/><path class="cls-23" d="M781,244.76c2.39,1.86,4.58,1.9,7.52,2s6,.31,9,.2c5.3-.19,5.31-8.06,0-8.25-3-.1-6,.11-9,.21s-5.13.14-7.52,2a2.72,2.72,0,0,0,0,3.84Z"/><polygon class="cls-24" points="70.76 735.44 70.76 742.27 323.23 888.05 700.59 669.38 700.59 664.83 70.76 735.44"/><polygon class="cls-6" points="70.76 724.05 70.76 737.72 323.23 883.5 700.59 664.83 700.59 646.61 70.76 724.05"/><polygon class="cls-24" points="70.76 720.23 70.76 724.05 323.23 869.83 700.59 651.16 700.59 646.61 70.76 720.23"/><polygon class="cls-25" points="70.76 720.23 450.11 501.2 700.59 646.61 323.23 866.01 70.76 720.23"/><polygon class="cls-6" points="449.47 555.5 575.71 628.38 528.37 655.72 402.13 582.83 449.47 555.5"/><polygon class="cls-24" points="70.76 720.23 70.76 742.27 75.99 745.29 75.99 723.38 70.76 720.23"/><polygon class="cls-26" points="1239.03 918.54 1239.03 954.92 1365.37 1027.81 1507.39 945.81 1507.39 909.37 1239.03 918.54"/><polygon class="cls-27" points="1239.03 918.54 1381.15 835.86 1507.39 909.37 1365.37 991.37 1239.03 918.54"/><path class="cls-21" d="M1381.15,835.86l126.24,73.51S1431.6,960.54,1345.14,972l-128-83S1323.73,872.8,1381.15,835.86Z"/><path class="cls-10" d="M940.83,1059.18l140.53-81.39c4.62-2.67,6.77-6.28,6.62-10h0l-.06-20.39-7.81,9.16c-.51-.34-1-.67-1.58-1L791.08,790.1c-11.42-6.57-28.67-7.26-38.54-1.54L614,868.8c-2.8-3.07-8.68-9.56-8.68-9.56l.06,20h0c-.21,4.49,3,9.28,9.43,13l287.49,165.45C913.71,1064.2,931,1064.89,940.83,1059.18Z"/><path class="cls-7" d="M1016.82,1009.25l-8.09,4.67c-1.08.62-2,0-2-1.47h0a4.66,4.66,0,0,1,2-3.72l8.09-4.67c1.08-.62,1.95,0,1.95,1.47h0A4.66,4.66,0,0,1,1016.82,1009.25Z"/><path class="cls-7" d="M791.08,790.1c-11.42-6.57-28.67-7.26-38.54-1.54L614,868.8c-2.8-3.07-8.68-9.56-8.68-9.56l.06,20h0c-.21,4.49,3,9.28,9.43,13l287.49,165.45A44.43,44.43,0,0,0,923,1063l-.27-197.13Z"/><path class="cls-10" d="M612,849.44l140.53-81.39c9.87-5.71,27.12-5,38.54,1.55l287.49,165.45c11.41,6.57,12.66,16.53,2.79,22.24l-140.53,81.38c-9.87,5.72-27.12,5-38.54-1.54L614.75,871.68C603.33,865.11,602.08,855.15,612,849.44Z"/><path class="cls-11" d="M940.88,1040.85l140.53-81.38c5.09-3,7.2-7,6.5-11.18-.25,3.37-2.41,6.57-6.61,9l-140.53,81.38c-9.87,5.72-27.12,5-38.54-1.54L614.75,871.68c-5.53-3.18-8.65-7.16-9.31-11.06-.33,4.57,2.85,9.46,9.41,13.24l287.49,165.45C913.75,1045.87,931,1046.57,940.88,1040.85Z"/><path class="cls-11" d="M622.77,852.64l135-78.19c7.33-4.25,20.16-3.74,28.64,1.14l283.41,163.1c8.48,4.89,9.41,12.29,2.08,16.54l-135,78.19c-7.34,4.25-20.16,3.74-28.64-1.14L624.85,869.18C616.37,864.29,615.44,856.89,622.77,852.64Z"/><polygon class="cls-25" points="989.34 866.45 949.82 899.85 1031.95 890.74 989.34 866.45"/><path class="cls-24" d="M840.4,639.3l9.89-6a17.85,17.85,0,0,1,18.85-.62l165,97a38.16,38.16,0,0,1,19.07,33V870.38a15.61,15.61,0,0,1-8.27,13.77l-12.65,6.73L840.17,777.13Z"/><path class="cls-25" d="M832.28,650.39V762.08a29,29,0,0,0,14.64,25.17l181,102.92a6.36,6.36,0,0,0,9.51-5.53V769.43a32.75,32.75,0,0,0-16.26-28.3L848.94,640.82A11.08,11.08,0,0,0,832.28,650.39Z"/><path class="cls-11" d="M870.64,725.59l28.5,15.68q-1.17,25.83-2.31,51.65c-7.89-.28-16.38-2.85-25.29-7.62-10.1-5.42-17.42-14.74-21.9-25-5.62-13-7.4-28.06-7.6-42.07-.16-10.77.92-24.62,9.33-32.32,7.8-7.14,19.14-2.25,26.55,1.33a56,56,0,0,1,11.9,8.41,80.51,80.51,0,0,1,9.52,9.8c-2.62,6.92-3.94,10.36-6.56,17.25a50.68,50.68,0,0,0-15.57-13.91c-5.27-2.91-9.43-2.68-12.43.74s-4.59,9.82-4.81,19.13c-.23,9.13.86,16.77,3.21,22.89s5.85,10.43,10.59,13a25.84,25.84,0,0,0,7.22,2.76c.24-6,.37-9.07.61-15.1-4.67-2.55-7-3.82-11.64-6.33C870.23,737.72,870.37,733.68,870.64,725.59Z"/><path class="cls-11" d="M959.5,765.34C959.25,776,957,783,952.65,786.49s-10.48,3.08-18.4-1.24l-5-2.71q-.62,15.88-1.22,31.78l-17.95-9.66q2.08-47.83,4.19-95.67l22.27,12.52a42.07,42.07,0,0,1,17.59,18Q959.85,750.8,959.5,765.34Zm-29.41-3.72,3.2,1.77q3.94,2.18,6.36.2t2.6-7.69c.22-6.42-2-11-6.83-13.64l-4.48-2.5C930.6,748.53,930.43,752.9,930.09,761.62Z"/><path class="cls-11" d="M1005.09,856c-1.11-8-1.66-11.94-2.77-19.79l-19.07-10.34c-1.29,6.55-1.94,9.84-3.27,16.51l-18.71-10.13c7.53-28.35,14.85-56.74,21.48-85.32,8.4,4.65,12.51,6.91,20.48,11.25,5.95,35.5,12.14,71,17.77,106.5C1014.94,861.35,1011.74,859.61,1005.09,856Zm-5.91-42.75c-1-6.79-1.46-10.17-2.42-17q-.84-5.68-2-14.66c-.8-6-1.33-10.3-1.57-12.86-.25,2.12-.73,5.55-1.46,10.28s-2.32,13.87-4.89,27.46C991.84,809.25,994.32,810.61,999.18,813.24Z"/><path class="cls-15" d="M697.41,876.31l22.89,13.22a4.35,4.35,0,0,0,4.33,0l101.79-58.78a4.33,4.33,0,0,0,0-7.5L803.53,810a4.35,4.35,0,0,0-4.33,0L697.41,868.8A4.34,4.34,0,0,0,697.41,876.31Z"/><path class="cls-15" d="M744.75,903.64l23.37,13.5a4.34,4.34,0,0,0,4.35,0l101.34-59a4.34,4.34,0,0,0,0-7.5l-22.92-13.24a4.35,4.35,0,0,0-4.33,0L744.75,896.14A4.33,4.33,0,0,0,744.75,903.64Z"/><path class="cls-15" d="M792.15,931l22.72,13.2a4.32,4.32,0,0,0,4.34,0L921.1,885.42a4.34,4.34,0,0,0,0-7.51L898.21,864.7a4.32,4.32,0,0,0-4.34,0L792.16,923.54A4.34,4.34,0,0,0,792.15,931Z"/><path class="cls-7" d="M871.66,968.63l100.79-58.19a4.78,4.78,0,0,1,4.77,0l22.06,12.65a4.79,4.79,0,0,1,0,8.3L898.43,989.62a4.8,4.8,0,0,1-4.78,0l-22-12.7A4.79,4.79,0,0,1,871.66,968.63Z"/><path class="cls-5" d="M160.21,702c-.53-.07-15-2.67-15-3.9s14.9-4.52,14.9-4.52Z"/><path class="cls-5" d="M416.25,685.57h9.19a50,50,0,0,1,23.6-9.66c13.95-1.68,40.35,8.31,40.35,8.31H500v-4.94s-36.58-9.34-50.07-7.35-25,10.73-25,10.73l-9.5.15Z"/><rect class="cls-11" x="342.08" y="541.62" width="23.68" height="314.21" transform="translate(-344.8 1052.65) rotate(-90)"/><rect class="cls-14" x="350.72" y="532.98" width="6.4" height="314.21" transform="translate(-336.16 1044) rotate(-90)"/><rect class="cls-14" x="350.72" y="550.26" width="6.4" height="314.21" transform="translate(-353.45 1061.29) rotate(-90)"/><polygon class="cls-7" points="196.82 710.57 173.49 703.55 173.49 692.33 196.82 686.88 196.82 710.57"/><polygon class="cls-10" points="160.21 693.22 160.21 696.8 160.21 698.82 160.21 702.4 164.65 703.7 173.74 702.89 173.74 698.82 173.74 696.8 173.74 692.73 164.65 691.92 160.21 693.22"/><rect class="cls-7" x="166.53" y="691" width="0.64" height="13.27" transform="translate(-530.79 864.49) rotate(-90)"/><rect class="cls-7" x="167.47" y="697.53" width="11.29" height="0.76" transform="translate(-524.8 871.02) rotate(-90)"/><rect class="cls-5" x="478.74" y="688.79" width="28.22" height="19.08" transform="translate(-205.48 1191.18) rotate(-90)"/><rect class="cls-5" x="512.81" y="688.68" width="15.51" height="19.08" transform="translate(-177.66 1218.79) rotate(-90)"/></g></g></svg>